<svg xmlns="http://www.w3.org/2000/svg" viewBox="0 0 36 36">
    <path id="head" d="M36,18C36,27.941 27.941,36 18,36C8.06,36 0,27.941 0,18C0,8.06 8.06,0 18,0C27.941,0 36,8.06 36,18" style="fill:rgb(255,204,77);fill-rule:nonzero;"/>
    <g id="eyes">
        <ellipse cx="11.5" cy="14.5" rx="2.5" ry="3.5" style="fill:rgb(102,69,0);"/>
        <ellipse cx="24.5" cy="14.5" rx="2.5" ry="3.5" style="fill:rgb(102,69,0);"/>
    </g>
    <path id="mouth" d="M8.665,27.871C8.843,28.032 9.109,28.042 9.3,27.9C9.339,27.871 13.222,25 18,25C22.766,25 26.662,27.871 26.7,27.9C26.891,28.042 27.157,28.03 27.335,27.871C27.512,27.711 27.552,27.447 27.429,27.243C27.3,27.029 24.212,22 18,22C11.788,22 8.699,27.028 8.571,27.243C8.448,27.448 8.487,27.711 8.665,27.871Z" style="fill:rgb(102,69,0);fill-rule:nonzero;"/>
</svg>
