<?xml version="1.0" encoding="UTF-8" standalone="no"?>
<!DOCTYPE svg PUBLIC "-//W3C//DTD SVG 1.1//EN" "http://www.w3.org/Graphics/SVG/1.1/DTD/svg11.dtd">
<svg width="100%" height="100%" viewBox="0 0 36 36" version="1.1" xmlns="http://www.w3.org/2000/svg" xmlns:xlink="http://www.w3.org/1999/xlink" xml:space="preserve" xmlns:serif="http://www.serif.com/" style="fill-rule:evenodd;clip-rule:evenodd;stroke-linejoin:round;stroke-miterlimit:2;">
    <path id="head" d="M36,18C36,27.941 27.941,36 18,36C8.06,36 0,27.941 0,18C0,8.06 8.06,0 18,0C27.941,0 36,8.06 36,18" style="fill:rgb(255,204,77);fill-rule:nonzero;"/>
    <g id="cheeks">
        <circle cx="29" cy="22" r="5" style="fill:rgb(255,120,146);"/>
        <circle cx="7" cy="22" r="5" style="fill:rgb(255,120,146);"/>
    </g>
    <path id="eyes" d="M29,14C28.744,14 28.488,13.902 28.293,13.707C25.716,11.132 21.238,11.971 21.194,11.981C20.646,12.09 20.127,11.734 20.02,11.194C19.913,10.653 20.262,10.128 20.803,10.02C21.03,9.974 26.366,8.955 29.706,12.293C30.097,12.684 30.097,13.316 29.706,13.707C29.512,13.902 29.256,14 29,14ZM7,14C6.744,14 6.488,13.902 6.293,13.707C5.902,13.316 5.902,12.684 6.293,12.293C9.633,8.952 14.971,9.975 15.196,10.02C15.738,10.128 16.089,10.655 15.98,11.197C15.872,11.737 15.347,12.089 14.805,11.982C14.736,11.967 10.276,11.139 7.707,13.708C7.512,13.902 7.256,14 7,14ZM26,19C25.744,19 25.488,18.902 25.293,18.707C23.989,17.402 21.203,17.733 20.241,17.971C19.701,18.103 19.164,17.776 19.03,17.241C18.897,16.705 19.222,16.164 19.758,16.03C19.944,15.984 24.333,14.919 26.707,17.293C27.098,17.684 27.098,18.316 26.707,18.707C26.512,18.902 26.256,19 26,19ZM10,19C9.744,19 9.488,18.902 9.293,18.707C8.902,18.316 8.902,17.684 9.293,17.293C11.666,14.92 16.057,15.984 16.243,16.03C16.778,16.164 17.103,16.705 16.97,17.241C16.838,17.777 16.297,18.104 15.76,17.971C14.796,17.734 12.011,17.404 10.708,18.707C10.512,18.902 10.256,19 10,19Z" style="fill:rgb(102,69,0);fill-rule:nonzero;"/>
    <g id="mouth">
        <path d="M13,25C13,25 14,29 18,29C22,29 23,25 23,25C23,25 22,26 18,26C14,26 13,25 13,25Z" style="fill:rgb(102,69,0);fill-rule:nonzero;"/>
        <path d="M18,29.5C13.66,29.5 12.526,25.165 12.515,25.121C12.46,24.903 12.558,24.676 12.753,24.564C12.944,24.458 13.183,24.485 13.344,24.636C13.383,24.67 14.41,25.5 18,25.5C21.644,25.5 22.647,24.645 22.657,24.637C22.822,24.491 23.066,24.466 23.254,24.577C23.442,24.69 23.538,24.908 23.485,25.121C23.474,25.165 22.34,29.5 18,29.5ZM13.949,26.008C14.526,27.072 15.724,28.5 18,28.5C20.276,28.5 21.475,27.072 22.051,26.008C21.231,26.266 19.95,26.5 18,26.5C16.05,26.5 14.769,26.266 13.949,26.008ZM13,25L13.01,25L13,25Z" style="fill:rgb(102,69,0);fill-rule:nonzero;"/>
    </g>
</svg>
